<svg width="28" height="28" viewBox="0 0 28 28" fill="none" xmlns="http://www.w3.org/2000/svg">
<path d="M23 0H5C2.23858 0 0 2.23858 0 5V23C0 25.7614 2.23858 28 5 28H23C25.7614 28 28 25.7614 28 23V5C28 2.23858 25.7614 0 23 0Z" fill="#0088CC"/>
<rect width="14.3758" height="12.915" transform="translate(6.28223 7.16602)" fill="#0088CC"/>
<path d="M10.5647 14.2662L17.0096 19.9369C17.0841 20.0029 17.1744 20.0483 17.2718 20.0687C17.3691 20.0892 17.4701 20.084 17.5648 20.0536C17.6596 20.0233 17.7448 19.9688 17.8121 19.8955C17.8794 19.8223 17.9264 19.7328 17.9487 19.6358L20.6442 7.86434C20.6668 7.76296 20.6615 7.65735 20.6288 7.55878C20.596 7.46021 20.5371 7.37238 20.4584 7.30466C20.3796 7.23694 20.284 7.19189 20.1816 7.1743C20.0792 7.15671 19.974 7.16725 19.8772 7.20479L6.64322 12.4023C6.11271 12.6102 6.1844 13.3845 6.74358 13.4992L10.5647 14.2662Z" stroke="white" stroke-linecap="round" stroke-linejoin="round"/>
<path d="M10.5654 14.2659L20.3224 7.21875" stroke="white" stroke-linecap="round" stroke-linejoin="round"/>
<path d="M13.7843 17.0993L11.5476 19.3361C11.4678 19.4171 11.3657 19.4726 11.2543 19.4954C11.1429 19.5183 11.0272 19.5075 10.9219 19.4645C10.8167 19.4215 10.7266 19.3481 10.6631 19.2538C10.5996 19.1594 10.5656 19.0483 10.5654 18.9346V14.2676" stroke="white" stroke-linecap="round" stroke-linejoin="round"/>
</svg>
